<?xml version="1.0" encoding="UTF-8"?>
<svg xmlns="http://www.w3.org/2000/svg" width="96" height="58" viewBox="0 0 96 58" fill="none">
  <g clip-path="url(#clip0_156_620)">
    <path d="M0 25.1513C0 23.8418 0.441425 22.7322 1.32428 21.8425C2.20713 20.9428 3.37088 20.4929 4.82558 20.4929C6.28028 20.4929 7.44404 20.9428 8.32689 21.8425C9.20974 22.7422 9.65117 23.8418 9.65117 25.1513C9.65117 26.4609 9.20974 27.5705 8.32689 28.4602C7.44404 29.3599 6.28028 29.8097 4.82558 29.8097C3.37088 29.8097 2.20713 29.3599 1.32428 28.4602C0.441425 27.5605 0 26.4609 0 25.1513ZM9.23984 57.2303C8.83854 57.3502 8.32689 57.4302 7.55439 57.5102C6.80196 57.5901 6.05957 57.6901 5.2971 57.6901C4.53464 57.6901 3.85244 57.6401 3.2505 57.5302C2.64855 57.4302 2.1369 57.2203 1.71554 56.9104C1.30421 56.6005 0.983175 56.1806 0.75243 55.6408C0.531717 55.111 0.411328 54.4112 0.411328 53.5415V32.5588C0.772494 32.4488 1.34434 32.2989 2.09677 32.1989C2.83917 32.0989 3.5916 32.019 4.35406 32.019C5.11652 32.019 5.79872 32.0689 6.40067 32.1789C7.00261 32.2789 7.51426 32.4888 7.93563 32.7987C8.34695 33.1086 8.66799 33.5284 8.89874 34.0683C9.11945 34.6081 9.23984 35.2978 9.23984 36.1675V57.2303Z" fill="#005798"></path>
    <path d="M26.9069 38.2368C26.0441 38.2368 25.2214 38.3768 24.4389 38.6467C23.6564 38.9266 22.9842 39.3264 22.4124 39.8663C21.8405 40.4061 21.379 41.0658 21.0379 41.8556C20.6868 42.6453 20.5162 43.585 20.5162 44.6546C20.5162 46.7939 21.1282 48.4033 22.3622 49.4629C23.5862 50.5326 25.091 51.0624 26.8567 51.0624C27.9001 51.0624 28.793 50.9424 29.5554 50.7025C30.3179 50.4626 31.0503 50.1627 31.6422 49.8828C32.3344 50.3626 32.7959 50.9324 33.137 51.5022C33.4781 52.072 33.6587 52.7518 33.6587 53.5415C33.6587 54.961 32.9865 56.0507 31.6321 56.8304C30.2778 57.6101 28.4117 57.99 26.024 57.99C23.847 57.99 21.8706 57.6701 20.1049 57.0303C18.3392 56.3906 16.8243 55.4909 15.5602 54.3413C14.2962 53.1817 13.323 51.8021 12.6308 50.1727C11.9386 48.5533 11.5874 46.7539 11.5874 44.7946C11.5874 42.5153 11.9586 40.526 12.701 38.8166C13.4434 37.1072 14.4567 35.7077 15.7408 34.5981C17.025 33.4985 18.4997 32.6687 20.1852 32.1189C21.8606 31.5691 23.6363 31.2892 25.5124 31.2892C28.0004 31.2892 29.9266 31.7391 31.281 32.6387C32.6354 33.5384 33.3076 34.688 33.3076 36.1076C33.3076 36.7673 33.147 37.3771 32.836 37.9469C32.525 38.5167 32.0836 38.9866 31.6723 39.4064C31.0804 39.1265 30.4483 38.8866 29.6156 38.6267C28.7729 38.3668 27.87 38.2368 26.9069 38.2368Z" fill="#005798"></path>
    <path d="M47.9849 31.2992C49.3995 31.2992 50.794 31.4991 52.1685 31.899C53.5329 32.2989 54.7167 32.8887 55.73 33.6884C56.7733 32.9986 57.9371 32.4288 59.2313 31.979C60.5254 31.5291 62.1005 31.3092 63.9264 31.3092C65.2407 31.3092 66.5348 31.4791 67.7989 31.829C69.063 32.1789 70.1866 32.7187 71.1698 33.4585C72.153 34.1982 72.9455 35.1879 73.5375 36.4074C74.1294 37.637 74.4203 39.1265 74.4203 40.8859V57.1903C74.0692 57.2902 73.5274 57.4002 72.785 57.5002C72.0426 57.6001 71.2701 57.6601 70.4776 57.6601C69.7151 57.6601 69.0329 57.6101 68.4209 57.5002C67.819 57.4002 67.3073 57.1903 66.886 56.8804C66.4747 56.5705 66.1536 56.1506 65.9229 55.6108C65.7022 55.081 65.5818 54.3812 65.5818 53.5115V41.1358C65.5818 40.0962 65.2908 39.3464 64.6989 38.8866C64.107 38.4168 63.3144 38.1868 62.3112 38.1868C61.8297 38.1868 61.308 38.2968 60.7562 38.5267C60.2044 38.7466 59.783 38.9866 59.5122 39.2265C59.5423 39.3664 59.5623 39.4964 59.5623 39.6163C59.5623 39.7363 59.5623 39.8463 59.5623 39.9562V57.1903C59.1811 57.2902 58.6193 57.4002 57.8769 57.5002C57.1345 57.6001 56.3821 57.6601 55.6196 57.6601C54.8571 57.6601 54.1749 57.6101 53.563 57.5002C52.961 57.4002 52.4494 57.1903 52.028 56.8804C51.6167 56.5705 51.2956 56.1506 51.0649 55.6108C50.8442 55.081 50.7238 54.3812 50.7238 53.5115V41.1358C50.7238 40.0962 50.4028 39.3464 49.7607 38.8866C49.1186 38.4168 48.3461 38.1868 47.4532 38.1868C46.8312 38.1868 46.2895 38.2868 45.838 38.4667C45.3866 38.6567 45.0053 38.8366 44.6943 39.0066V57.1703C44.3432 57.2703 43.8014 57.3802 43.059 57.4802C42.3166 57.5801 41.5442 57.6401 40.7516 57.6401C39.9891 57.6401 39.3069 57.5901 38.705 57.4802C38.103 57.3802 37.5914 57.1703 37.17 56.8604C36.7587 56.5505 36.4377 56.1306 36.2069 55.5908C35.9862 55.061 35.8658 54.3613 35.8658 53.4916V37.8669C35.8658 36.9373 36.0665 36.1975 36.4678 35.6377C36.8691 35.0879 37.4108 34.5681 38.103 34.0882C39.2768 33.2585 40.7416 32.5888 42.4872 32.0689C44.2529 31.5591 46.0888 31.2992 47.9849 31.2992Z" fill="#005798"></path>
    <path d="M67.3475 4.45847C67.0164 4.62841 60.1141 8.24716 59.783 14.9249C59.3918 22.7222 73.8184 27.4505 73.8184 27.4505C63.0937 17.1841 67.2271 4.80834 67.3475 4.45847Z" fill="#E3232D"></path>
    <path d="M82.7974 3.80869C82.4763 3.57877 75.5841 -1.31954 70.9692 0.339885C68.2905 1.29955 67.3575 4.44847 67.3575 4.44847C73.9789 0.399864 80.1789 2.53913 82.7974 3.80869Z" fill="#009BD3"></path>
    <path d="M90.8734 10.2964C93.8932 14.2151 94.9968 17.434 94.9968 17.434C96.612 13.1755 95.3078 10.4864 95.3078 10.4864C92.8298 5.01827 84.1116 4.52844 84.1116 4.52844C84.1016 4.53844 87.8537 6.3878 90.8734 10.2964Z" fill="#005798"></path>
    <path d="M73.8184 27.4505C73.8184 27.4505 78.9951 32.1089 86.1783 32.6987C88.9071 32.9187 90.9236 32.1289 91.9268 31.2292C93.4718 29.8397 93.833 27.7404 93.8531 27.6005C93.8029 27.6405 93.7728 27.6605 93.7728 27.6605C87.9239 32.8087 73.8184 27.4505 73.8184 27.4505Z" fill="#009BD3"></path>
    <path d="M94.9968 17.444C94.9968 17.444 91.8265 26.4009 83.9912 27.1406C83.9912 27.1406 77.6006 28.0303 73.2967 19.2434C68.9928 10.4464 70.7284 8.29714 71.6514 7.29748C75.1828 3.51879 84.1016 4.53844 84.1016 4.53844C84.1016 4.53844 83.6301 4.21855 82.7873 3.80869C80.1789 2.53912 73.9789 0.399862 67.3475 4.45846C67.3475 4.45846 67.3475 4.45846 67.3475 4.46846C67.2271 4.81834 63.0937 17.2041 73.8184 27.4605C73.8184 27.4605 87.9139 32.8187 93.7728 27.6705C93.7728 27.6705 93.8029 27.6505 93.8531 27.6105C94.4048 27.1506 97.5952 24.1217 94.9968 17.444Z" fill="#CE242F"></path>
    <path d="M90.8734 10.2964C87.8537 6.3878 84.1116 4.53844 84.1116 4.53844C84.1116 4.53844 75.1928 3.50879 71.6614 7.29748C70.7384 8.28714 69.0028 10.4364 73.3067 19.2334C77.6106 28.0303 84.0013 27.1306 84.0013 27.1306C91.8366 26.3909 95.0068 17.434 95.0068 17.434C95.0068 17.434 93.8932 14.2151 90.8734 10.2964Z" fill="#9D2632"></path>
  </g>
  <defs>
    <clipPath id="clip0_156_620">
      <rect width="96" height="58" fill="white"></rect>
    </clipPath>
  </defs>
</svg>
