<?xml version="1.0" encoding="utf-8"?>
<!-- Generator: Adobe Illustrator 22.0.1, SVG Export Plug-In . SVG Version: 6.00 Build 0)  -->
<svg version="1.1" id="Layer_1" xmlns="http://www.w3.org/2000/svg" xmlns:xlink="http://www.w3.org/1999/xlink" x="0px" y="0px"
	 viewBox="0 0 220.4 133.3" style="enable-background:new 0 0 220.4 133.3;" xml:space="preserve">
<style type="text/css">
	.st0{fill:#009BD3;}
	.st1{fill:#E3232D;}
	.st2{fill:#005798;}
	.st3{fill:#9D2632;}
	.st4{fill:#CE242F;}
</style>
<path class="st0" d="M211.5,62.2c-0.1,0.1-0.2,0.1-0.2,0.1c-13.1,11.4-44.7-0.5-44.7-0.5s0.2,0.2,0.6,0.5c-0.1,0-0.1,0-0.1,0
	s11.5,10.4,27.4,11.7c6.1,0.5,10.5-1.3,12.7-3.3c3.4-3.1,4.2-7.8,4.3-8.1l-0.1,0.1C211.4,62.5,211.5,62.3,211.5,62.2z"/>
<path class="st0" d="M186.9,9.8L186.9,9.8c-0.6-0.5-15.9-11.4-26.1-7.7c-5.9,2.1-8,9.2-8,9.2l0,0c-0.1,0.2-0.1,0.3-0.1,0.3
	c14.9-9,28.8-4.3,34.7-1.4C187.3,10,187.1,9.9,186.9,9.8z"/>
<path class="st1" d="M168.4,62.7c-23.7-23.3-14.6-51.4-14.3-52.2l0,0c-0.1,0.1-0.6,0.3-1.3,0.7v-0.1l0,0c-0.7,0.4-16,8.4-16.8,23.3
	c-0.8,16.4,27.5,26.6,30.8,27.8C167.7,62.5,168.3,62.7,168.4,62.7z"/>
<g>
	<path class="st2" d="M3.4,57.3c0-2.9,1-5.4,2.9-7.4c2-2,4.5-3,7.8-3c3.2,0,5.8,1,7.8,3s2.9,4.5,2.9,7.4s-1,5.4-2.9,7.4
		c-2,2-4.5,3-7.8,3c-3.2,0-5.8-1-7.8-3C4.3,62.7,3.4,60.2,3.4,57.3z M23.9,128.7c-0.9,0.3-2,0.4-3.7,0.6c-1.7,0.2-3.3,0.4-5,0.4
		s-3.2-0.1-4.5-0.3s-2.5-0.7-3.4-1.4c-0.9-0.7-1.6-1.6-2.1-2.8c-0.5-1.2-0.7-2.7-0.7-4.7V73.8C5.1,73.6,6.4,73.2,8,73
		c1.7-0.2,3.3-0.4,5-0.4s3.2,0.1,4.5,0.3c1.3,0.2,2.5,0.7,3.4,1.4c0.9,0.7,1.6,1.6,2.1,2.8c0.5,1.2,0.7,2.7,0.7,4.7v46.9H23.9z"/>
	<path class="st2" d="M63,86.4c-1.9,0-3.7,0.3-5.5,0.9c-1.7,0.6-3.2,1.5-4.5,2.7s-2.3,2.7-3.1,4.4c-0.8,1.8-1.2,3.8-1.2,6.2
		c0,4.8,1.4,8.3,4.1,10.7c2.7,2.4,6,3.6,10,3.6c2.3,0,4.3-0.3,6-0.8c1.7-0.5,3.3-1.2,4.6-1.8c1.5,1.1,2.6,2.3,3.3,3.6
		c0.8,1.3,1.2,2.8,1.2,4.5c0,3.1-1.5,5.6-4.5,7.3s-7.1,2.6-12.4,2.6c-4.8,0-9.2-0.7-13.1-2.1c-3.9-1.4-7.3-3.4-10.1-6
		s-5-5.7-6.5-9.3c-1.5-3.6-2.3-7.6-2.3-12c0-5.1,0.8-9.5,2.5-13.3s3.9-6.9,6.7-9.4s6.1-4.3,9.8-5.5s7.7-1.8,11.8-1.8
		c5.5,0,9.8,1,12.8,3s4.5,4.6,4.5,7.7c0,1.5-0.3,2.8-1,4.1c-0.7,1.3-1.7,2.3-2.6,3.2c-1.3-0.6-2.7-1.2-4.6-1.7
		C67.2,86.7,65.2,86.4,63,86.4z"/>
	<path class="st2" d="M109.8,71c3.1,0,6.2,0.4,9.3,1.3c3,0.9,5.7,2.2,7.9,4c2.3-1.5,4.9-2.8,7.8-3.8s6.4-1.5,10.4-1.5
		c2.9,0,5.8,0.4,8.6,1.2c2.8,0.8,5.3,2,7.5,3.6c2.2,1.7,3.9,3.8,5.2,6.6c1.3,2.7,2,6,2,10v36.3c-0.8,0.2-2,0.5-3.6,0.7
		s-3.4,0.3-5.1,0.3c-1.7,0-3.2-0.1-4.5-0.3s-2.5-0.7-3.4-1.4c-0.9-0.7-1.6-1.6-2.1-2.8c-0.5-1.2-0.7-2.7-0.7-4.7V92.9
		c0-2.3-0.7-4-2-5s-3.1-1.6-5.3-1.6c-1.1,0-2.2,0.2-3.5,0.7c-1.2,0.5-2.2,1-2.8,1.6c0.1,0.3,0.1,0.6,0.1,0.9s0,0.5,0,0.7v38.4
		c-0.8,0.2-2.1,0.5-3.7,0.7c-1.7,0.2-3.3,0.3-5,0.3s-3.2-0.1-4.5-0.3s-2.5-0.7-3.4-1.4c-0.9-0.7-1.6-1.6-2.1-2.8
		c-0.5-1.2-0.7-2.7-0.7-4.7V92.9c0-2.3-0.7-4-2.1-5s-3.1-1.6-5.1-1.6c-1.4,0-2.6,0.2-3.6,0.6s-1.8,0.8-2.5,1.2v40.4
		c-0.8,0.2-2,0.5-3.6,0.7c-1.7,0.2-3.4,0.3-5.1,0.3s-3.2-0.1-4.5-0.3s-2.5-0.7-3.4-1.4c-0.9-0.7-1.6-1.6-2.1-2.8
		c-0.5-1.2-0.7-2.7-0.7-4.7V85.6c0-2.1,0.4-3.7,1.3-5c0.9-1.2,2.1-2.4,3.6-3.5c2.6-1.8,5.9-3.3,9.7-4.5
		C101.5,71.5,105.6,71,109.8,71z"/>
</g>
<path class="st2" d="M214.4,24.9c-5.5-12.5-24.9-13.6-24.9-13.6l0,0c0,0,8.3,4.2,15.1,13.1c6.7,8.9,9.2,16.3,9.2,16.3
	C217.3,31.1,214.4,24.9,214.4,24.9z"/>
<path class="st3" d="M214,40.1c0,0-2.4-7.2-9.1-15.9c-6.7-8.7-15-12.8-15-12.8l0,0c0,0-19.8-2.3-27.6,6.1l0,0
	c-0.1,0.1-0.2,0.2-0.3,0.3c-2.1,2.2-5.9,7,3.6,26.6S189.3,62,189.3,62c6.7-0.6,11.8-3.9,15.6-7.8C211.2,48,214,40.1,214,40.1z"/>
<path class="st4" d="M214,40.1c0,0-7,19.9-24.4,21.6c0,0-14.2,2-23.7-17.6s-5.7-24.4-3.6-26.6c7.8-8.4,27.6-6.1,27.6-6.1
	s-1-0.7-2.9-1.6c-5.8-2.8-19.5-7.6-34.2,1.4l0,0c-0.3,0.8-9.4,28.3,14.3,51.1l0,0c0,0,31.3,11.9,44.2,0.5c0,0,0.1,0,0.2-0.1
	C212.7,61.7,219.8,55,214,40.1z"/>
</svg>
